REM DIRINDEX 1\2\4\18,1\2\4\19,1\2\5\20,1\2\5\21,1\2\6\22,1\2\7\23,1\2\8\24,1\2\8\25,1\2\9\26,1\2\10\27,1\3\11\28,1\3\11\29,1\3\11\30,1\3\11\31,1\3\12\32,1\3\12\33,1\3\12\34,1\3\12\35,1\3\13\36,1\3\13\37,1\3\14\38,1\3\14\39,1\3\15\40,1\3\15\41,1\3\15\42,1\3\16\43,1\3\16\44,1\3\17\45,1\3\17\46
REM DIRNAME cjc023,folder01,folder02,folder03,folder04,folder05,folder06,folder07,folder08,folder09,folder10,folder11,folder12,folder13,folder14,folder15,folder16,folder17,folder18,folder19,folder20,folder21,folder22,folder23,folder24,folder25,folder26,folder27,folder28,folder29,folder30,folder31,folder32,folder33,folder34,folder35,folder36,folder37,folder38,folder39,folder40,folder41,folder42,folder43,folder44,folder45
TITLE ""
FILE "16.mp3" MP3
  TRACK 01 AUDIO
    TITLE "0:"
    INDEX 01 00:00:00
  TRACK 02 AUDIO
    TITLE "44:cjc023_8051"
    INDEX 01 00:00:13
  TRACK 03 AUDIO
    TITLE "0:"
    INDEX 01 00:01:71
  TRACK 04 AUDIO
    TITLE "43:cjc023_8052"
    INDEX 01 00:02:20
  TRACK 05 AUDIO
    TITLE "0:"
    INDEX 01 00:04:03
  TRACK 06 AUDIO
    TITLE "44:cjc023_8053"
    INDEX 01 00:04:64
  TRACK 07 AUDIO
    TITLE "0:"
    INDEX 01 00:06:06
  TRACK 08 AUDIO
    TITLE "43:cjc023_8054"
    INDEX 01 00:06:30
  TRACK 09 AUDIO
    TITLE "0:"
    INDEX 01 00:07:54
  TRACK 10 AUDIO
    TITLE "44:cjc023_8055"
    INDEX 01 00:08:48
  TRACK 11 AUDIO
    TITLE "0:"
    INDEX 01 00:09:57
  TRACK 12 AUDIO
    TITLE "43:cjc023_8056"
    INDEX 01 00:10:08
  TRACK 13 AUDIO
    TITLE "0:"
    INDEX 01 00:11:48
  TRACK 14 AUDIO
    TITLE "44:cjc023_8057"
    INDEX 01 00:12:36
  TRACK 15 AUDIO
    TITLE "0:"
    INDEX 01 00:14:72
  TRACK 16 AUDIO
    TITLE "43:cjc023_8058"
    INDEX 01 00:15:17
  TRACK 17 AUDIO
    TITLE "0:"
    INDEX 01 00:16:51
  TRACK 18 AUDIO
    TITLE "44:cjc023_8059"
    INDEX 01 00:17:31
  TRACK 19 AUDIO
    TITLE "0:"
    INDEX 01 00:18:48
  TRACK 20 AUDIO
    TITLE "43:cjc023_8060"
    INDEX 01 00:18:72
  TRACK 21 AUDIO
    TITLE "0:"
    INDEX 01 00:20:30
  TRACK 22 AUDIO
    TITLE "44:cjc023_8061"
    INDEX 01 00:21:13
  TRACK 23 AUDIO
    TITLE "0:"
    INDEX 01 00:22:72
  TRACK 24 AUDIO
    TITLE "43:cjc023_8062"
    INDEX 01 00:23:20
  TRACK 25 AUDIO
    TITLE "0:"
    INDEX 01 00:24:69
  TRACK 26 AUDIO
    TITLE "44:cjc023_8063"
    INDEX 01 00:25:50
  TRACK 27 AUDIO
    TITLE "0:"
    INDEX 01 00:27:34
  TRACK 28 AUDIO
    TITLE "43:cjc023_8064"
    INDEX 01 00:27:55
  TRACK 29 AUDIO
    TITLE "0:"
    INDEX 01 00:29:09
  TRACK 30 AUDIO
    TITLE "44:cjc023_8065"
    INDEX 01 00:29:72
  TRACK 31 AUDIO
    TITLE "0:"
    INDEX 01 00:32:37
  TRACK 32 AUDIO
    TITLE "43:cjc023_8066"
    INDEX 01 00:32:58
  TRACK 33 AUDIO
    TITLE "0:"
    INDEX 01 00:34:55
  TRACK 34 AUDIO
    TITLE "44:cjc023_8067"
    INDEX 01 00:35:39
  TRACK 35 AUDIO
    TITLE "0:"
    INDEX 01 00:37:03
  TRACK 36 AUDIO
    TITLE "43:cjc023_8068"
    INDEX 01 00:37:26
  TRACK 37 AUDIO
    TITLE "0:"
    INDEX 01 00:38:57
  TRACK 38 AUDIO
    TITLE "44:cjc023_8069"
    INDEX 01 00:39:45
  TRACK 39 AUDIO
    TITLE "0:"
    INDEX 01 00:40:64
  TRACK 40 AUDIO
    TITLE "43:cjc023_8070"
    INDEX 01 00:41:10
  TRACK 41 AUDIO
    TITLE "0:"
    INDEX 01 00:42:66
  TRACK 42 AUDIO
    TITLE "44:cjc023_8071"
    INDEX 01 00:43:48
  TRACK 43 AUDIO
    TITLE "0:"
    INDEX 01 00:45:57
  TRACK 44 AUDIO
    TITLE "43:cjc023_8072"
    INDEX 01 00:46:04
  TRACK 45 AUDIO
    TITLE "0:"
    INDEX 01 00:47:64
  TRACK 46 AUDIO
    TITLE "44:cjc023_8073"
    INDEX 01 00:48:46
  TRACK 47 AUDIO
    TITLE "0:"
    INDEX 01 00:52:04
  TRACK 48 AUDIO
    TITLE "43:cjc023_8074"
    INDEX 01 00:52:26
  TRACK 49 AUDIO
    TITLE "0:"
    INDEX 01 00:53:55
  TRACK 50 AUDIO
    TITLE "44:cjc023_8075"
    INDEX 01 00:54:38
  TRACK 51 AUDIO
    TITLE "0:"
    INDEX 01 00:56:39
  TRACK 52 AUDIO
    TITLE "43:cjc023_8076"
    INDEX 01 00:56:63
  TRACK 53 AUDIO
    TITLE "0:"
    INDEX 01 00:58:24
  TRACK 54 AUDIO
    TITLE "44:cjc023_8077"
    INDEX 01 00:59:12
  TRACK 55 AUDIO
    TITLE "0:"
    INDEX 01 01:00:15
  TRACK 56 AUDIO
    TITLE "43:cjc023_8078"
    INDEX 01 01:00:39
  TRACK 57 AUDIO
    TITLE "0:"
    INDEX 01 01:02:22
  TRACK 58 AUDIO
    TITLE "44:cjc023_8079"
    INDEX 01 01:03:06
  TRACK 59 AUDIO
    TITLE "0:"
    INDEX 01 01:04:33
  TRACK 60 AUDIO
    TITLE "43:cjc023_8080"
    INDEX 01 01:04:56
  TRACK 61 AUDIO
    TITLE "0:"
    INDEX 01 01:06:06
  TRACK 62 AUDIO
    TITLE "44:cjc023_8081"
    INDEX 01 01:06:67
  TRACK 63 AUDIO
    TITLE "0:"
    INDEX 01 01:08:13
  TRACK 64 AUDIO
    TITLE "43:cjc023_8082"
    INDEX 01 01:08:35
  TRACK 65 AUDIO
    TITLE "0:"
    INDEX 01 01:09:69
  TRACK 66 AUDIO
    TITLE "44:cjc023_8083"
    INDEX 01 01:10:57
  TRACK 67 AUDIO
    TITLE "0:"
    INDEX 01 01:13:06
  TRACK 68 AUDIO
    TITLE "43:cjc023_8084"
    INDEX 01 01:13:28
  TRACK 69 AUDIO
    TITLE "0:"
    INDEX 01 01:15:54
  TRACK 70 AUDIO
    TITLE "44:cjc023_8085"
    INDEX 01 01:16:38
  TRACK 71 AUDIO
    TITLE "0:"
    INDEX 01 01:19:25
  TRACK 72 AUDIO
    TITLE "43:cjc023_8086"
    INDEX 01 01:19:46
  TRACK 73 AUDIO
    TITLE "0:"
    INDEX 01 01:21:20
  TRACK 74 AUDIO
    TITLE "44:cjc023_8087"
    INDEX 01 01:22:07
  TRACK 75 AUDIO
    TITLE "0:"
    INDEX 01 01:24:39
  TRACK 76 AUDIO
    TITLE "43:cjc023_8088"
    INDEX 01 01:24:63
  TRACK 77 AUDIO
    TITLE "0:"
    INDEX 01 01:26:54
  TRACK 78 AUDIO
    TITLE "44:cjc023_8089"
    INDEX 01 01:27:44
  TRACK 79 AUDIO
    TITLE "0:"
    INDEX 01 01:29:37
  TRACK 80 AUDIO
    TITLE "43:cjc023_8090"
    INDEX 01 01:29:58
  TRACK 81 AUDIO
    TITLE "0:"
    INDEX 01 01:31:38
  TRACK 82 AUDIO
    TITLE "44:cjc023_8091"
    INDEX 01 01:32:21
  TRACK 83 AUDIO
    TITLE "0:"
    INDEX 01 01:33:64
  TRACK 84 AUDIO
    TITLE "43:cjc023_8092"
    INDEX 01 01:34:08
  TRACK 85 AUDIO
    TITLE "0:"
    INDEX 01 01:35:51
  TRACK 86 AUDIO
    TITLE "44:cjc023_8093"
    INDEX 01 01:36:33
  TRACK 87 AUDIO
    TITLE "0:"
    INDEX 01 01:39:57
  TRACK 88 AUDIO
    TITLE "43:cjc023_8094"
    INDEX 01 01:40:03
  TRACK 89 AUDIO
    TITLE "0:"
    INDEX 01 01:41:30
  TRACK 90 AUDIO
    TITLE "44:cjc023_8095"
    INDEX 01 01:42:22
  TRACK 91 AUDIO
    TITLE "0:"
    INDEX 01 01:43:27
  TRACK 92 AUDIO
    TITLE "43:cjc023_8096"
    INDEX 01 01:43:51
  TRACK 93 AUDIO
    TITLE "0:"
    INDEX 01 01:45:47
  TRACK 94 AUDIO
    TITLE "44:cjc023_8097"
    INDEX 01 01:46:33
  TRACK 95 AUDIO
    TITLE "0:"
    INDEX 01 01:47:54
  TRACK 96 AUDIO
    TITLE "43:cjc023_8098"
    INDEX 01 01:48:14
  TRACK 97 AUDIO
    TITLE "0:"
    INDEX 01 01:49:67
  TRACK 98 AUDIO
    TITLE "44:cjc023_8099"
    INDEX 01 01:50:51
  TRACK 99 AUDIO
    TITLE "0:"
    INDEX 01 01:52:55
  TRACK 100 AUDIO
    TITLE "43:cjc023_8100"
    INDEX 01 01:53:06
  TRACK 101 AUDIO
    TITLE "0:"
    INDEX 01 01:54:54
  TRACK 102 AUDIO
    TITLE "44:cjc023_8101"
    INDEX 01 01:55:44
  TRACK 103 AUDIO
    TITLE "0:"
    INDEX 01 01:57:39
  TRACK 104 AUDIO
    TITLE "43:cjc023_8102"
    INDEX 01 01:57:64
  TRACK 105 AUDIO
    TITLE "0:"
    INDEX 01 01:59:46
  TRACK 106 AUDIO
    TITLE "44:cjc023_8103"
    INDEX 01 02:00:29
  TRACK 107 AUDIO
    TITLE "0:"
    INDEX 01 02:02:28
  TRACK 108 AUDIO
    TITLE "43:cjc023_8104"
    INDEX 01 02:02:52
  TRACK 109 AUDIO
    TITLE "0:"
    INDEX 01 02:03:61
  TRACK 110 AUDIO
    TITLE "44:cjc023_8105"
    INDEX 01 02:04:51
  TRACK 111 AUDIO
    TITLE "0:"
    INDEX 01 02:06:63
  TRACK 112 AUDIO
    TITLE "43:cjc023_8106"
    INDEX 01 02:07:14
  TRACK 113 AUDIO
    TITLE "0:"
    INDEX 01 02:08:66
  TRACK 114 AUDIO
    TITLE "44:cjc023_8107"
    INDEX 01 02:09:52
  TRACK 115 AUDIO
    TITLE "0:"
    INDEX 01 02:11:45
  TRACK 116 AUDIO
    TITLE "43:cjc023_8108"
    INDEX 01 02:11:70
  TRACK 117 AUDIO
    TITLE "0:"
    INDEX 01 02:13:03
  TRACK 118 AUDIO
    TITLE "44:cjc023_8109"
    INDEX 01 02:13:61
  TRACK 119 AUDIO
    TITLE "0:"
    INDEX 01 02:17:34
  TRACK 120 AUDIO
    TITLE "43:cjc023_8110"
    INDEX 01 02:17:55
  TRACK 121 AUDIO
    TITLE "0:"
    INDEX 01 02:19:01
  TRACK 122 AUDIO
    TITLE "44:cjc023_8111"
    INDEX 01 02:19:62
  TRACK 123 AUDIO
    TITLE "0:"
    INDEX 01 02:21:55
  TRACK 124 AUDIO
    TITLE "43:cjc023_8112"
    INDEX 01 02:22:04
  TRACK 125 AUDIO
    TITLE "0:"
    INDEX 01 02:23:15
  TRACK 126 AUDIO
    TITLE "44:cjc023_8113"
    INDEX 01 02:24:06
  TRACK 127 AUDIO
    TITLE "0:"
    INDEX 01 02:26:09
  TRACK 128 AUDIO
    TITLE "43:cjc023_8114"
    INDEX 01 02:26:31
  TRACK 129 AUDIO
    TITLE "0:"
    INDEX 01 02:27:69
  TRACK 130 AUDIO
    TITLE "44:cjc023_8115"
    INDEX 01 02:28:57
  TRACK 131 AUDIO
    TITLE "0:"
    INDEX 01 02:32:06
  TRACK 132 AUDIO
    TITLE "43:cjc023_8116"
    INDEX 01 02:32:27
  TRACK 133 AUDIO
    TITLE "0:"
    INDEX 01 02:33:54
  TRACK 134 AUDIO
    TITLE "44:cjc023_8117"
    INDEX 01 02:34:38
  TRACK 135 AUDIO
    TITLE "0:"
    INDEX 01 02:35:63
  TRACK 136 AUDIO
    TITLE "43:cjc023_8118"
    INDEX 01 02:36:10
  TRACK 137 AUDIO
    TITLE "0:"
    INDEX 01 02:37:34
  TRACK 138 AUDIO
    TITLE "44:cjc023_8119"
    INDEX 01 02:38:16
  TRACK 139 AUDIO
    TITLE "0:"
    INDEX 01 02:39:45
  TRACK 140 AUDIO
    TITLE "43:cjc023_8120"
    INDEX 01 02:39:71
  TRACK 141 AUDIO
    TITLE "0:"
    INDEX 01 02:41:09
  TRACK 142 AUDIO
    TITLE "44:cjc023_8121"
    INDEX 01 02:41:64
  TRACK 143 AUDIO
    TITLE "0:"
    INDEX 01 02:43:14
  TRACK 144 AUDIO
    TITLE "43:cjc023_8122"
    INDEX 01 02:43:35
  TRACK 145 AUDIO
    TITLE "0:"
    INDEX 01 02:45:24
  TRACK 146 AUDIO
    TITLE "44:cjc023_8123"
    INDEX 01 02:46:12
  TRACK 147 AUDIO
    TITLE "0:"
    INDEX 01 02:47:21
  TRACK 148 AUDIO
    TITLE "43:cjc023_8124"
    INDEX 01 02:47:45
  TRACK 149 AUDIO
    TITLE "0:"
    INDEX 01 02:49:04
  TRACK 150 AUDIO
    TITLE "44:cjc023_8125"
    INDEX 01 02:49:63
  TRACK 151 AUDIO
    TITLE "0:"
    INDEX 01 02:51:37
  TRACK 152 AUDIO
    TITLE "43:cjc023_8126"
    INDEX 01 02:51:60
  TRACK 153 AUDIO
    TITLE "0:"
    INDEX 01 02:53:22
  TRACK 154 AUDIO
    TITLE "44:cjc023_8127"
    INDEX 01 02:54:02
  TRACK 155 AUDIO
    TITLE "0:"
    INDEX 01 02:56:16
  TRACK 156 AUDIO
    TITLE "43:cjc023_8128"
    INDEX 01 02:56:42
  TRACK 157 AUDIO
    TITLE "0:"
    INDEX 01 02:59:09
  TRACK 158 AUDIO
    TITLE "44:cjc023_8129"
    INDEX 01 02:59:69
  TRACK 159 AUDIO
    TITLE "0:"
    INDEX 01 03:01:21
  TRACK 160 AUDIO
    TITLE "43:cjc023_8130"
    INDEX 01 03:01:43
  TRACK 161 AUDIO
    TITLE "0:"
    INDEX 01 03:02:60
  TRACK 162 AUDIO
    TITLE "44:cjc023_8131"
    INDEX 01 03:03:46
  TRACK 163 AUDIO
    TITLE "0:"
    INDEX 01 03:05:15
  TRACK 164 AUDIO
    TITLE "43:cjc023_8132"
    INDEX 01 03:05:37
  TRACK 165 AUDIO
    TITLE "0:"
    INDEX 01 03:07:06
  TRACK 166 AUDIO
    TITLE "44:cjc023_8133"
    INDEX 01 03:07:69
  TRACK 167 AUDIO
    TITLE "0:"
    INDEX 01 03:09:66
  TRACK 168 AUDIO
    TITLE "43:cjc023_8134"
    INDEX 01 03:10:14
  TRACK 169 AUDIO
    TITLE "0:"
    INDEX 01 03:11:51
  TRACK 170 AUDIO
    TITLE "44:cjc023_8135"
    INDEX 01 03:12:45
  TRACK 171 AUDIO
    TITLE "0:"
    INDEX 01 03:14:47
  TRACK 172 AUDIO
    TITLE "43:cjc023_8136"
    INDEX 01 03:14:69
  TRACK 173 AUDIO
    TITLE "0:"
    INDEX 01 03:16:38
  TRACK 174 AUDIO
    TITLE "44:cjc023_8137"
    INDEX 01 03:17:26
  TRACK 175 AUDIO
    TITLE "0:"
    INDEX 01 03:19:54
  TRACK 176 AUDIO
    TITLE "43:cjc023_8138"
    INDEX 01 03:20:01
  TRACK 177 AUDIO
    TITLE "0:"
    INDEX 01 03:21:36
  TRACK 178 AUDIO
    TITLE "44:cjc023_8139"
    INDEX 01 03:22:19
  TRACK 179 AUDIO
    TITLE "0:"
    INDEX 01 03:23:35
  TRACK 180 AUDIO
    TITLE "43:cjc023_8140"
    INDEX 01 03:23:58
  TRACK 181 AUDIO
    TITLE "0:"
    INDEX 01 03:25:06
  TRACK 182 AUDIO
    TITLE "44:cjc023_8141"
    INDEX 01 03:25:65
  TRACK 183 AUDIO
    TITLE "0:"
    INDEX 01 03:28:22
  TRACK 184 AUDIO
    TITLE "43:cjc023_8142"
    INDEX 01 03:28:44
  TRACK 185 AUDIO
    TITLE "0:"
    INDEX 01 03:30:09
  TRACK 186 AUDIO
    TITLE "44:cjc023_8143"
    INDEX 01 03:30:68
  TRACK 187 AUDIO
    TITLE "0:"
    INDEX 01 03:32:63
  TRACK 188 AUDIO
    TITLE "43:cjc023_8144"
    INDEX 01 03:33:11
  TRACK 189 AUDIO
    TITLE "0:"
    INDEX 01 03:34:46
  TRACK 190 AUDIO
    TITLE "44:cjc023_8145"
    INDEX 01 03:35:30
  TRACK 191 AUDIO
    TITLE "0:"
    INDEX 01 03:37:03
  TRACK 192 AUDIO
    TITLE "43:cjc023_8146"
    INDEX 01 03:37:29
  TRACK 193 AUDIO
    TITLE "0:"
    INDEX 01 03:38:52
  TRACK 194 AUDIO
    TITLE "44:cjc023_8147"
    INDEX 01 03:39:39
  TRACK 195 AUDIO
    TITLE "0:"
    INDEX 01 03:40:64
  TRACK 196 AUDIO
    TITLE "43:cjc023_8148"
    INDEX 01 03:41:11
  TRACK 197 AUDIO
    TITLE "0:"
    INDEX 01 03:42:30
  TRACK 198 AUDIO
    TITLE "44:cjc023_8149"
    INDEX 01 03:43:16
  TRACK 199 AUDIO
    TITLE "0:"
    INDEX 01 03:44:60
  TRACK 200 AUDIO
    TITLE "43:cjc023_8150"
    INDEX 01 03:45:09
  TRACK 201 AUDIO
    TITLE "0:"
    INDEX 01 03:46:49
  TRACK 202 AUDIO
    TITLE "44:cjc023_8151"
    INDEX 01 03:47:29
  TRACK 203 AUDIO
    TITLE "0:"
    INDEX 01 03:48:70
  TRACK 204 AUDIO
    TITLE "43:cjc023_8152"
    INDEX 01 03:49:16
  TRACK 205 AUDIO
    TITLE "0:"
    INDEX 01 03:50:55
  TRACK 206 AUDIO
    TITLE "44:cjc023_8153"
    INDEX 01 03:51:43
  TRACK 207 AUDIO
    TITLE "0:"
    INDEX 01 03:54:51
  TRACK 208 AUDIO
    TITLE "43:cjc023_8154"
    INDEX 01 03:55:01
  TRACK 209 AUDIO
    TITLE "0:"
    INDEX 01 03:56:46
  TRACK 210 AUDIO
    TITLE "44:cjc023_8155"
    INDEX 01 03:57:30
  TRACK 211 AUDIO
    TITLE "0:"
    INDEX 01 03:59:27
  TRACK 212 AUDIO
    TITLE "43:cjc023_8156"
    INDEX 01 03:59:48
  TRACK 213 AUDIO
    TITLE "0:"
    INDEX 01 04:01:39
  TRACK 214 AUDIO
    TITLE "44:cjc023_8157"
    INDEX 01 04:02:21
  TRACK 215 AUDIO
    TITLE "0:"
    INDEX 01 04:04:24
  TRACK 216 AUDIO
    TITLE "43:cjc023_8158"
    INDEX 01 04:04:45
  TRACK 217 AUDIO
    TITLE "0:"
    INDEX 01 04:06:19
  TRACK 218 AUDIO
    TITLE "44:cjc023_8159"
    INDEX 01 04:07:04
  TRACK 219 AUDIO
    TITLE "0:"
    INDEX 01 04:08:22
  TRACK 220 AUDIO
    TITLE "43:cjc023_8160"
    INDEX 01 04:08:47
  TRACK 221 AUDIO
    TITLE "0:"
    INDEX 01 04:09:72
  TRACK 222 AUDIO
    TITLE "44:cjc023_8161"
    INDEX 01 04:10:56
  TRACK 223 AUDIO
    TITLE "0:"
    INDEX 01 04:12:51
  TRACK 224 AUDIO
    TITLE "43:cjc023_8162"
    INDEX 01 04:12:70
  TRACK 225 AUDIO
    TITLE "0:"
    INDEX 01 04:14:30
  TRACK 226 AUDIO
    TITLE "44:cjc023_8163"
    INDEX 01 04:15:14
  TRACK 227 AUDIO
    TITLE "0:"
    INDEX 01 04:18:24
  TRACK 228 AUDIO
    TITLE "43:cjc023_8164"
    INDEX 01 04:18:49
  TRACK 229 AUDIO
    TITLE "0:"
    INDEX 01 04:21:16
  TRACK 230 AUDIO
    TITLE "44:cjc023_8165"
    INDEX 01 04:22:02
  TRACK 231 AUDIO
    TITLE "0:"
    INDEX 01 04:23:72
  TRACK 232 AUDIO
    TITLE "43:cjc023_8166"
    INDEX 01 04:24:21
  TRACK 233 AUDIO
    TITLE "0:"
    INDEX 01 04:25:55
  TRACK 234 AUDIO
    TITLE "44:cjc023_8167"
    INDEX 01 04:26:39
  TRACK 235 AUDIO
    TITLE "0:"
    INDEX 01 04:28:63
  TRACK 236 AUDIO
    TITLE "43:cjc023_8168"
    INDEX 01 04:29:08
  TRACK 237 AUDIO
    TITLE "0:"
    INDEX 01 04:31:07
  TRACK 238 AUDIO
    TITLE "44:cjc023_8169"
    INDEX 01 04:31:66
  TRACK 239 AUDIO
    TITLE "0:"
    INDEX 01 04:33:65
  TRACK 240 AUDIO
    TITLE "43:cjc023_8170"
    INDEX 01 04:34:11
  TRACK 241 AUDIO
    TITLE "0:"
    INDEX 01 04:35:46
  TRACK 242 AUDIO
    TITLE "44:cjc023_8171"
    INDEX 01 04:36:34
  TRACK 243 AUDIO
    TITLE "0:"
    INDEX 01 04:39:24
  TRACK 244 AUDIO
    TITLE "43:cjc023_8172"
    INDEX 01 04:39:46
  TRACK 245 AUDIO
    TITLE "0:"
    INDEX 01 04:41:07
  TRACK 246 AUDIO
    TITLE "44:cjc023_8173"
    INDEX 01 04:41:66
  TRACK 247 AUDIO
    TITLE "0:"
    INDEX 01 04:44:66
  TRACK 248 AUDIO
    TITLE "43:cjc023_8174"
    INDEX 01 04:45:13
  TRACK 249 AUDIO
    TITLE "0:"
    INDEX 01 04:47:20
  TRACK 250 AUDIO
    TITLE "44:cjc023_8175"
    INDEX 01 04:48:03
  TRACK 251 AUDIO
    TITLE "0:"
    INDEX 01 04:50:12
  TRACK 252 AUDIO
    TITLE "43:cjc023_8176"
    INDEX 01 04:50:32
  TRACK 253 AUDIO
    TITLE "0:"
    INDEX 01 04:51:70
  TRACK 254 AUDIO
    TITLE "44:cjc023_8177"
    INDEX 01 04:52:54
  TRACK 255 AUDIO
    TITLE "0:"
    INDEX 01 04:54:73
  TRACK 256 AUDIO
    TITLE "43:cjc023_8178"
    INDEX 01 04:55:21
  TRACK 257 AUDIO
    TITLE "0:"
    INDEX 01 04:57:06
  TRACK 258 AUDIO
    TITLE "44:cjc023_8179"
    INDEX 01 04:57:67
  TRACK 259 AUDIO
    TITLE "0:"
    INDEX 01 05:00:61
  TRACK 260 AUDIO
    TITLE "43:cjc023_8180"
    INDEX 01 05:01:08
  TRACK 261 AUDIO
    TITLE "0:"
    INDEX 01 05:02:66
  TRACK 262 AUDIO
    TITLE "44:cjc023_8181"
    INDEX 01 05:03:52
  TRACK 263 AUDIO
    TITLE "0:"
    INDEX 01 05:04:73
  TRACK 264 AUDIO
    TITLE "43:cjc023_8182"
    INDEX 01 05:05:21
  TRACK 265 AUDIO
    TITLE "0:"
    INDEX 01 05:06:64
  TRACK 266 AUDIO
    TITLE "44:cjc023_8183"
    INDEX 01 05:07:48
  TRACK 267 AUDIO
    TITLE "0:"
    INDEX 01 05:09:39
  TRACK 268 AUDIO
    TITLE "43:cjc023_8184"
    INDEX 01 05:09:64
  TRACK 269 AUDIO
    TITLE "0:"
    INDEX 01 05:11:36
  TRACK 270 AUDIO
    TITLE "44:cjc023_8185"
    INDEX 01 05:12:22
  TRACK 271 AUDIO
    TITLE "0:"
    INDEX 01 05:13:43
  TRACK 272 AUDIO
    TITLE "43:cjc023_8186"
    INDEX 01 05:13:64
  TRACK 273 AUDIO
    TITLE "0:"
    INDEX 01 05:15:41
  TRACK 274 AUDIO
    TITLE "44:cjc023_8187"
    INDEX 01 05:16:23
  TRACK 275 AUDIO
    TITLE "0:"
    INDEX 01 05:18:18
  TRACK 276 AUDIO
    TITLE "43:cjc023_8188"
    INDEX 01 05:18:42
  TRACK 277 AUDIO
    TITLE "0:"
    INDEX 01 05:19:73
  TRACK 278 AUDIO
    TITLE "44:cjc023_8189"
    INDEX 01 05:20:56
  TRACK 279 AUDIO
    TITLE "0:"
    INDEX 01 05:22:67
  TRACK 280 AUDIO
    TITLE "43:cjc023_8190"
    INDEX 01 05:23:14
  TRACK 281 AUDIO
    TITLE "0:"
    INDEX 01 05:26:24
  TRACK 282 AUDIO
    TITLE "44:cjc023_8191"
    INDEX 01 05:27:09
  TRACK 283 AUDIO
    TITLE "0:"
    INDEX 01 05:28:26
  TRACK 284 AUDIO
    TITLE "43:cjc023_8192"
    INDEX 01 05:28:46
  TRACK 285 AUDIO
    TITLE "0:"
    INDEX 01 05:30:27
  TRACK 286 AUDIO
    TITLE "44:cjc023_8193"
    INDEX 01 05:31:11
  TRACK 287 AUDIO
    TITLE "0:"
    INDEX 01 05:33:18
  TRACK 288 AUDIO
    TITLE "43:cjc023_8194"
    INDEX 01 05:33:39
  TRACK 289 AUDIO
    TITLE "0:"
    INDEX 01 05:34:66
  TRACK 290 AUDIO
    TITLE "44:cjc023_8195"
    INDEX 01 05:35:54
  TRACK 291 AUDIO
    TITLE "0:"
    INDEX 01 05:37:23
  TRACK 292 AUDIO
    TITLE "43:cjc023_8196"
    INDEX 01 05:37:47
  TRACK 293 AUDIO
    TITLE "0:"
    INDEX 01 05:41:15
  TRACK 294 AUDIO
    TITLE "44:cjc023_8197"
    INDEX 01 05:42:01
  TRACK 295 AUDIO
    TITLE "0:"
    INDEX 01 05:43:24
  TRACK 296 AUDIO
    TITLE "43:cjc023_8198"
    INDEX 01 05:43:46
  TRACK 297 AUDIO
    TITLE "0:"
    INDEX 01 05:45:03
  TRACK 298 AUDIO
    TITLE "44:cjc023_8199"
    INDEX 01 05:45:62
  TRACK 299 AUDIO
    TITLE "0:"
    INDEX 01 05:48:00
  TRACK 300 AUDIO
    TITLE "43:cjc023_8200"
    INDEX 01 05:48:21
  TRACK 301 AUDIO
    TITLE "0:"
    INDEX 01 05:49:74
  TRACK 302 AUDIO
    TITLE "44:cjc023_8201"
    INDEX 01 05:50:61
  TRACK 303 AUDIO
    TITLE "0:"
    INDEX 01 05:52:72
  TRACK 304 AUDIO
    TITLE "43:cjc023_8202"
    INDEX 01 05:53:17
  TRACK 305 AUDIO
    TITLE "0:"
    INDEX 01 05:54:69
  TRACK 306 AUDIO
    TITLE "44:cjc023_8203"
    INDEX 01 05:55:57
  TRACK 307 AUDIO
    TITLE "0:"
    INDEX 01 05:57:57
  TRACK 308 AUDIO
    TITLE "43:cjc023_8204"
    INDEX 01 05:58:04
  TRACK 309 AUDIO
    TITLE "0:"
    INDEX 01 06:00:19
  TRACK 310 AUDIO
    TITLE "44:cjc023_8205"
    INDEX 01 06:01:00
  TRACK 311 AUDIO
    TITLE "0:"
    INDEX 01 06:02:45
  TRACK 312 AUDIO
    TITLE "43:cjc023_8206"
    INDEX 01 06:02:63
  TRACK 313 AUDIO
    TITLE "0:"
    INDEX 01 06:04:11
  TRACK 314 AUDIO
    TITLE "44:cjc023_8207"
    INDEX 01 06:04:69
  TRACK 315 AUDIO
    TITLE "0:"
    INDEX 01 06:07:19
  TRACK 316 AUDIO
    TITLE "43:cjc023_8208"
    INDEX 01 06:07:36
  TRACK 317 AUDIO
    TITLE "0:"
    INDEX 01 06:09:18
  TRACK 318 AUDIO
    TITLE "44:cjc023_8209"
    INDEX 01 06:10:03
  TRACK 319 AUDIO
    TITLE "0:"
    INDEX 01 06:11:30
  TRACK 320 AUDIO
    TITLE "43:cjc023_8210"
    INDEX 01 06:11:52
  TRACK 321 AUDIO
    TITLE "0:"
    INDEX 01 06:13:00
  TRACK 322 AUDIO
    TITLE "44:cjc023_8211"
    INDEX 01 06:13:58
  TRACK 323 AUDIO
    TITLE "0:"
    INDEX 01 06:14:72
  TRACK 324 AUDIO
    TITLE "43:cjc023_8212"
    INDEX 01 06:15:16
  TRACK 325 AUDIO
    TITLE "0:"
    INDEX 01 06:16:49
  TRACK 326 AUDIO
    TITLE "44:cjc023_8213"
    INDEX 01 06:17:33
  TRACK 327 AUDIO
    TITLE "0:"
    INDEX 01 06:18:58
  TRACK 328 AUDIO
    TITLE "43:cjc023_8214"
    INDEX 01 06:19:04
  TRACK 329 AUDIO
    TITLE "0:"
    INDEX 01 06:20:45
  TRACK 330 AUDIO
    TITLE "44:cjc023_8215"
    INDEX 01 06:21:31
  TRACK 331 AUDIO
    TITLE "0:"
    INDEX 01 06:22:55
  TRACK 332 AUDIO
    TITLE "43:cjc023_8216"
    INDEX 01 06:23:04
  TRACK 333 AUDIO
    TITLE "0:"
    INDEX 01 06:24:31
  TRACK 334 AUDIO
    TITLE "44:cjc023_8217"
    INDEX 01 06:25:15
  TRACK 335 AUDIO
    TITLE "0:"
    INDEX 01 06:27:08
  TRACK 336 AUDIO
    TITLE "43:cjc023_8218"
    INDEX 01 06:27:37
  TRACK 337 AUDIO
    TITLE "0:"
    INDEX 01 06:29:01
  TRACK 338 AUDIO
    TITLE "44:cjc023_8219"
    INDEX 01 06:29:59
  TRACK 339 AUDIO
    TITLE "0:"
    INDEX 01 06:32:07
  TRACK 340 AUDIO
    TITLE "43:cjc023_8220"
    INDEX 01 06:32:24
  TRACK 341 AUDIO
    TITLE "0:"
    INDEX 01 06:33:55
  TRACK 342 AUDIO
    TITLE "44:cjc023_8221"
    INDEX 01 06:34:39
  TRACK 343 AUDIO
    TITLE "0:"
    INDEX 01 06:35:64
  TRACK 344 AUDIO
    TITLE "43:cjc023_8222"
    INDEX 01 06:36:11
  TRACK 345 AUDIO
    TITLE "0:"
    INDEX 01 06:37:51
  TRACK 346 AUDIO
    TITLE "44:cjc023_8223"
    INDEX 01 06:38:37
  TRACK 347 AUDIO
    TITLE "0:"
    INDEX 01 06:40:06
  TRACK 348 AUDIO
    TITLE "43:cjc023_8224"
    INDEX 01 06:40:28
  TRACK 349 AUDIO
    TITLE "0:"
    INDEX 01 06:41:63
  TRACK 350 AUDIO
    TITLE "44:cjc023_8225"
    INDEX 01 06:42:42
  TRACK 351 AUDIO
    TITLE "0:"
    INDEX 01 06:43:69
  TRACK 352 AUDIO
    TITLE "43:cjc023_8226"
    INDEX 01 06:44:18
  TRACK 353 AUDIO
    TITLE "0:"
    INDEX 01 06:45:43
  TRACK 354 AUDIO
    TITLE "44:cjc023_8227"
    INDEX 01 06:46:23
  TRACK 355 AUDIO
    TITLE "0:"
    INDEX 01 06:48:04
  TRACK 356 AUDIO
    TITLE "43:cjc023_8228"
    INDEX 01 06:48:25
  TRACK 357 AUDIO
    TITLE "0:"
    INDEX 01 06:50:28
  TRACK 358 AUDIO
    TITLE "44:cjc023_8229"
    INDEX 01 06:51:14
  TRACK 359 AUDIO
    TITLE "0:"
    INDEX 01 06:55:06
  TRACK 360 AUDIO
    TITLE "43:cjc023_8230"
    INDEX 01 06:55:29
  TRACK 361 AUDIO
    TITLE "0:"
    INDEX 01 06:56:37
  TRACK 362 AUDIO
    TITLE "44:cjc023_8231"
    INDEX 01 06:57:21
  TRACK 363 AUDIO
    TITLE "0:"
    INDEX 01 07:00:15
  TRACK 364 AUDIO
    TITLE "43:cjc023_8232"
    INDEX 01 07:00:40
  TRACK 365 AUDIO
    TITLE "0:"
    INDEX 01 07:01:52
  TRACK 366 AUDIO
    TITLE "44:cjc023_8233"
    INDEX 01 07:02:35
  TRACK 367 AUDIO
    TITLE "0:"
    INDEX 01 07:03:66
  TRACK 368 AUDIO
    TITLE "43:cjc023_8234"
    INDEX 01 07:04:17
  TRACK 369 AUDIO
    TITLE "0:"
    INDEX 01 07:05:51
  TRACK 370 AUDIO
    TITLE "44:cjc023_8235"
    INDEX 01 07:06:33
  TRACK 371 AUDIO
    TITLE "0:"
    INDEX 01 07:08:18
  TRACK 372 AUDIO
    TITLE "43:cjc023_8236"
    INDEX 01 07:08:36
  TRACK 373 AUDIO
    TITLE "0:"
    INDEX 01 07:09:69
  TRACK 374 AUDIO
    TITLE "44:cjc023_8237"
    INDEX 01 07:10:51
  TRACK 375 AUDIO
    TITLE "0:"
    INDEX 01 07:12:24
  TRACK 376 AUDIO
    TITLE "43:cjc023_8238"
    INDEX 01 07:12:46
  TRACK 377 AUDIO
    TITLE "0:"
    INDEX 01 07:13:69
  TRACK 378 AUDIO
    TITLE "44:cjc023_8239"
    INDEX 01 07:14:52
  TRACK 379 AUDIO
    TITLE "0:"
    INDEX 01 07:16:43
  TRACK 380 AUDIO
    TITLE "43:cjc023_8240"
    INDEX 01 07:16:67
  TRACK 381 AUDIO
    TITLE "0:"
    INDEX 01 07:18:07
  TRACK 382 AUDIO
    TITLE "44:cjc023_8241"
    INDEX 01 07:18:66
  TRACK 383 AUDIO
    TITLE "0:"
    INDEX 01 07:21:13
  TRACK 384 AUDIO
    TITLE "43:cjc023_8242"
    INDEX 01 07:21:45
  TRACK 385 AUDIO
    TITLE "0:"
    INDEX 01 07:23:06
  TRACK 386 AUDIO
    TITLE "44:cjc023_8243"
    INDEX 01 07:23:63
  TRACK 387 AUDIO
    TITLE "0:"
    INDEX 01 07:25:31
  TRACK 388 AUDIO
    TITLE "43:cjc023_8244"
    INDEX 01 07:25:54
  TRACK 389 AUDIO
    TITLE "0:"
    INDEX 01 07:27:22
  TRACK 390 AUDIO
    TITLE "44:cjc023_8245"
    INDEX 01 07:28:05
  TRACK 391 AUDIO
    TITLE "0:"
    INDEX 01 07:29:21
  TRACK 392 AUDIO
    TITLE "43:cjc023_8246"
    INDEX 01 07:29:44
  TRACK 393 AUDIO
    TITLE "0:"
    INDEX 01 07:30:69
  TRACK 394 AUDIO
    TITLE "44:cjc023_8247"
    INDEX 01 07:31:59
  TRACK 395 AUDIO
    TITLE "0:"
    INDEX 01 07:33:56
  TRACK 396 AUDIO
    TITLE "43:cjc023_8248"
    INDEX 01 07:34:04
  TRACK 397 AUDIO
    TITLE "0:"
    INDEX 01 07:35:60
  TRACK 398 AUDIO
    TITLE "44:cjc023_8249"
    INDEX 01 07:36:40
  TRACK 399 AUDIO
    TITLE "0:"
    INDEX 01 07:38:27
  TRACK 400 AUDIO
    TITLE "43:cjc023_8250"
    INDEX 01 07:38:51
  TRACK 401 AUDIO
    TITLE "0:"
    INDEX 01 07:40:34
  TRACK 402 AUDIO
    TITLE "44:cjc023_8251"
    INDEX 01 07:41:16
  TRACK 403 AUDIO
    TITLE "0:"
    INDEX 01 07:43:09
  TRACK 404 AUDIO
    TITLE "43:cjc023_8252"
    INDEX 01 07:43:34
  TRACK 405 AUDIO
    TITLE "0:"
    INDEX 01 07:44:63
  TRACK 406 AUDIO
    TITLE "44:cjc023_8253"
    INDEX 01 07:45:49
  TRACK 407 AUDIO
    TITLE "0:"
    INDEX 01 07:47:52
  TRACK 408 AUDIO
    TITLE "43:cjc023_8254"
    INDEX 01 07:47:73
  TRACK 409 AUDIO
    TITLE "0:"
    INDEX 01 07:49:39
  TRACK 410 AUDIO
    TITLE "44:cjc023_8255"
    INDEX 01 07:50:25
  TRACK 411 AUDIO
    TITLE "0:"
    INDEX 01 07:52:37
  TRACK 412 AUDIO
    TITLE "43:cjc023_8256"
    INDEX 01 07:52:59
  TRACK 413 AUDIO
    TITLE "0:"
    INDEX 01 07:55:06
  TRACK 414 AUDIO
    TITLE "44:cjc023_8257"
    INDEX 01 07:55:67
  TRACK 415 AUDIO
    TITLE "0:"
    INDEX 01 07:57:60
  TRACK 416 AUDIO
    TITLE "43:cjc023_8258"
    INDEX 01 07:58:08
  TRACK 417 AUDIO
    TITLE "0:"
    INDEX 01 08:00:09
  TRACK 418 AUDIO
    TITLE "44:cjc023_8259"
    INDEX 01 08:00:68
  TRACK 419 AUDIO
    TITLE "0:"
    INDEX 01 08:02:55
  TRACK 420 AUDIO
    TITLE "43:cjc023_8260"
    INDEX 01 08:03:02
  TRACK 421 AUDIO
    TITLE "0:"
    INDEX 01 08:04:58
  TRACK 422 AUDIO
    TITLE "44:cjc023_8261"
    INDEX 01 08:05:44
  TRACK 423 AUDIO
    TITLE "0:"
    INDEX 01 08:07:31
  TRACK 424 AUDIO
    TITLE "43:cjc023_8262"
    INDEX 01 08:07:54
  TRACK 425 AUDIO
    TITLE "0:"
    INDEX 01 08:09:38
  TRACK 426 AUDIO
    TITLE "44:cjc023_8263"
    INDEX 01 08:10:23
  TRACK 427 AUDIO
    TITLE "0:"
    INDEX 01 08:12:28
  TRACK 428 AUDIO
    TITLE "43:cjc023_8264"
    INDEX 01 08:12:48
  TRACK 429 AUDIO
    TITLE "0:"
    INDEX 01 08:14:27
  TRACK 430 AUDIO
    TITLE "44:cjc023_8265"
    INDEX 01 08:15:11
  TRACK 431 AUDIO
    TITLE "0:"
    INDEX 01 08:16:53
  TRACK 432 AUDIO
    TITLE "43:cjc023_8266"
    INDEX 01 08:17:02
  TRACK 433 AUDIO
    TITLE "0:"
    INDEX 01 08:18:33
  TRACK 434 AUDIO
    TITLE "44:cjc023_8267"
    INDEX 01 08:19:16
  TRACK 435 AUDIO
    TITLE "0:"
    INDEX 01 08:22:03
  TRACK 436 AUDIO
    TITLE "43:cjc023_8268"
    INDEX 01 08:22:27
  TRACK 437 AUDIO
    TITLE "0:"
    INDEX 01 08:23:61
  TRACK 438 AUDIO
    TITLE "44:cjc023_8269"
    INDEX 01 08:24:47
  TRACK 439 AUDIO
    TITLE "0:"
    INDEX 01 08:26:36
  TRACK 440 AUDIO
    TITLE "43:cjc023_8270"
    INDEX 01 08:26:64
  TRACK 441 AUDIO
    TITLE "0:"
    INDEX 01 08:28:17
  TRACK 442 AUDIO
    TITLE "44:cjc023_8271"
    INDEX 01 08:29:01
  TRACK 443 AUDIO
    TITLE "0:"
    INDEX 01 08:30:57
  TRACK 444 AUDIO
    TITLE "43:cjc023_8272"
    INDEX 01 08:31:10
  TRACK 445 AUDIO
    TITLE "0:"
    INDEX 01 08:33:17
  TRACK 446 AUDIO
    TITLE "44:cjc023_8273"
    INDEX 01 08:34:02
  TRACK 447 AUDIO
    TITLE "0:"
    INDEX 01 08:35:37
  TRACK 448 AUDIO
    TITLE "43:cjc023_8274"
    INDEX 01 08:35:59
  TRACK 449 AUDIO
    TITLE "0:"
    INDEX 01 08:37:12
  TRACK 450 AUDIO
    TITLE "44:cjc023_8275"
    INDEX 01 08:37:71
  TRACK 451 AUDIO
    TITLE "0:"
    INDEX 01 08:40:52
  TRACK 452 AUDIO
    TITLE "43:cjc023_8276"
    INDEX 01 08:40:72
  TRACK 453 AUDIO
    TITLE "0:"
    INDEX 01 08:42:72
  TRACK 454 AUDIO
    TITLE "44:cjc023_8277"
    INDEX 01 08:43:56
  TRACK 455 AUDIO
    TITLE "0:"
    INDEX 01 08:45:57
  TRACK 456 AUDIO
    TITLE "43:cjc023_8278"
    INDEX 01 08:46:09
  TRACK 457 AUDIO
    TITLE "0:"
    INDEX 01 08:47:62
  TRACK 458 AUDIO
    TITLE "44:cjc023_8279"
    INDEX 01 08:48:46
  TRACK 459 AUDIO
    TITLE "0:"
    INDEX 01 08:49:55
  TRACK 460 AUDIO
    TITLE "43:cjc023_8280"
    INDEX 01 08:50:07
  TRACK 461 AUDIO
    TITLE "0:"
    INDEX 01 08:51:60
  TRACK 462 AUDIO
    TITLE "44:cjc023_8281"
    INDEX 01 08:52:41
  TRACK 463 AUDIO
    TITLE "0:"
    INDEX 01 08:54:27
  TRACK 464 AUDIO
    TITLE "43:cjc023_8282"
    INDEX 01 08:54:48
  TRACK 465 AUDIO
    TITLE "0:"
    INDEX 01 08:56:33
  TRACK 466 AUDIO
    TITLE "44:cjc023_8283"
    INDEX 01 08:57:17
  TRACK 467 AUDIO
    TITLE "0:"
    INDEX 01 08:59:38
  TRACK 468 AUDIO
    TITLE "43:cjc023_8284"
    INDEX 01 08:59:59
  TRACK 469 AUDIO
    TITLE "0:"
    INDEX 01 09:01:36
  TRACK 470 AUDIO
    TITLE "44:cjc023_8285"
    INDEX 01 09:02:22
  TRACK 471 AUDIO
    TITLE "0:"
    INDEX 01 09:04:37
  TRACK 472 AUDIO
    TITLE "43:cjc023_8286"
    INDEX 01 09:04:58
  TRACK 473 AUDIO
    TITLE "0:"
    INDEX 01 09:06:61
  TRACK 474 AUDIO
    TITLE "44:cjc023_8287"
    INDEX 01 09:07:47
  TRACK 475 AUDIO
    TITLE "0:"
    INDEX 01 09:09:05
  TRACK 476 AUDIO
    TITLE "43:cjc023_8288"
    INDEX 01 09:09:26
  TRACK 477 AUDIO
    TITLE "0:"
    INDEX 01 09:11:41
  TRACK 478 AUDIO
    TITLE "44:cjc023_8289"
    INDEX 01 09:12:26
  TRACK 479 AUDIO
    TITLE "0:"
    INDEX 01 09:13:73
  TRACK 480 AUDIO
    TITLE "43:cjc023_8290"
    INDEX 01 09:14:19
  TRACK 481 AUDIO
    TITLE "0:"
    INDEX 01 09:15:44
